<svg width="106" height="106" viewBox="0 0 106 106" fill="none" xmlns="http://www.w3.org/2000/svg">
<path fill-rule="evenodd" clip-rule="evenodd" d="M53 105.5C59.8944 105.5 66.7213 104.142 73.0909 101.504C79.4605 98.8653 85.248 94.9982 90.1231 90.1231C94.9982 85.248 98.8653 79.4605 101.504 73.0909C104.142 66.7213 105.5 59.8944 105.5 53C105.5 46.1056 104.142 39.2787 101.504 32.9091C98.8653 26.5395 94.9982 20.752 90.1231 15.8769C85.248 11.0018 79.4605 7.1347 73.0909 4.49632C66.7213 1.85795 59.8944 0.5 53 0.5C39.0761 0.5 25.7226 6.03123 15.8769 15.8769C6.03123 25.7226 0.5 39.0761 0.5 53C0.5 66.9239 6.03123 80.2774 15.8769 90.1231C25.7226 99.9688 39.0761 105.5 53 105.5ZM51.6467 74.2333L80.8133 39.2333L71.8533 31.7667L46.77 61.8608L33.7908 48.8758L25.5425 57.1242L43.0425 74.6242L47.5575 79.1392L51.6467 74.2333Z" fill="#007F49"/>
</svg>